<svg version="1.2" xmlns="http://www.w3.org/2000/svg" viewBox="0 0 685 366" width="685" height="366">
	<title>Spyglass</title>
	<style>
		.s0 { fill: #010101 } 
		.s1 { fill: #7f807f } 
		.s2 { fill: #4c4c4c } 
		.s3 { fill: #fffffe } 
		.s4 { fill: #df6236 } 
	</style>
	<g id="Background">
		<path id="Path 0" class="s0" d="m128.7 16.8c-1 0.3-3.5 1.2-5.5 2-3.3 1.4-9.6 1.4-55.4 0.4-44-1-52.2-1-54.5 0.2-1.6 0.8-3.9 3.3-5.2 5.7q-2.4 4.4-2.9 10.9c-0.3 3.8 0 8.1 0.8 10.5 0.7 2.2 2.2 5.3 3.4 6.9 1.1 1.6 3.6 3.6 5.4 4.3 1.7 0.7 24.2 13.3 50 27.9 26.5 15.1 48.7 28.4 51.3 30.7 2.6 2.3 5.8 5.1 7.1 6.2 1.4 1.1 3.3 2.2 4.4 2.4 1 0.2 6.6 2.7 12.4 5.7 5.8 3 11.6 6.3 13 7.4 1.4 1.2 4.4 2.5 6.8 3 2.3 0.6 16.9 8.2 32.5 17.1 21.9 12.4 29.3 17.2 33.2 21.2 3.7 3.8 7.7 6.4 14.5 9.7 5.2 2.4 13.7 6.6 18.8 9.2 5 2.7 9.9 4.8 10.7 4.8 0.8 0 14.2 7.2 29.8 16 22.7 12.8 29.3 17.1 33.7 21.5 3 3.1 7.5 6.9 10 8.4 2.5 1.5 12.3 7.2 21.8 12.7 9.5 5.4 18.5 10.5 20 11.3 1.5 0.8 4.7 3.3 7.2 5.6 2.5 2.3 6 4.9 7.8 5.8 1.7 0.9 5.2 2 7.6 2.5 3 0.5 4.9 0.3 6-0.5 1.2-1 2.1-1 3.9-0.1 1.2 0.6 20.4 11.4 42.7 24 22.3 12.7 41.3 24 42.3 25.1 1 1.2 1.8 1.9 1.7 1.4 0-0.4 2.1 0.9 4.8 2.9 2.6 2 6.6 4.7 9 6 2.3 1.3 4.2 2.8 4.2 3.4 0 0.6 0.5 0.8 1 0.5 0.5-0.3 1-0.1 1 0.5 0 0.6 0.5 0.8 1 0.5 0.5-0.3 1-0.1 1 0.5 0 0.6 0.3 0.9 0.8 0.9 0.4-0.1 1.5-0.1 2.5 0 0.9 0 2.3 0.7 3 1.3 0.6 0.7 1.9 1.4 2.7 1.5 0.8 0 4.6 0.9 8.5 1.9 3.9 0.9 7.7 1.9 8.5 2.2 0.8 0.3 6 0.4 11.5 0.4 5.5-0.1 13.1-0.7 17-1.5 3.9-0.8 10.8-3 15.5-4.8 4.7-1.8 8.8-3.2 9.3-3.1 0.4 0.1 0.7-0.2 0.7-0.8 0-0.6 0.5-0.8 1-0.5 0.5 0.3 1 0.1 1-0.5 0-0.6 1.2-1.8 2.8-2.7 1.5-0.9 3.2-1.7 3.9-1.7 0.6-0.1 0.9-0.2 0.7-0.4-0.2-0.1 2.2-2.2 5.4-4.6 3.1-2.5 8.3-7.1 11.4-10.3 3.1-3.2 8.8-10.1 12.8-15.3 4.1-5.6 10-15.3 14-23.5 3.9-7.7 8.8-19.4 10.9-26 2.2-6.6 5.1-17.8 6.5-25 1.4-7.2 3-19.3 3.7-27 0.7-8.2 0.9-19.6 0.5-27.5-0.3-7.4-1.3-18.2-2.2-24-0.8-5.8-2.4-14.6-3.6-19.5-1.1-4.9-3.8-14.2-6-20.5-2.2-6.3-6.3-16.2-9.2-22-2.9-5.8-7.9-14.5-11.2-19.5-3.2-4.9-9.9-13.2-14.9-18.3-5-5.2-11.9-11.6-15.5-14.2-3.6-2.6-9-6.1-12-7.8-3-1.7-9.5-4.4-14.5-6.1-5-1.6-13-3.5-18-4.2-7-0.9-11.3-0.9-19.5 0.1-8.3 1-23.7 1-73.5 0-34.6-0.6-64-1.3-65.3-1.6-2.1-0.4-2.1-0.5-0.7-2.9 1.1-1.8 1.2-3 0.5-4.5-0.6-1.1-2.2-2.3-3.8-2.7-1.5-0.3-15.8-0.3-31.7 0.1-16.3 0.4-30.5 1.2-32.5 1.8-1.9 0.6-5.3 2.3-7.5 3.8l-4 2.8c-59.7-1.1-60-1.1-59.7-3.2 0.2-1.2-0.2-2.7-1-3.4-1-0.9-6-1.2-20.8-1-18 0.3-19.8 0.5-23.7 2.6-4 2.1-5.5 2.2-23.5 2.2-10.6 0-24-0.3-29.8-0.6-9.4-0.6-10.6-0.8-11.5-2.8-1-2-1.7-2.1-18-2.2-9.3-0.1-17.8 0.1-18.8 0.4z"/>
		<path id="Path 1" class="s1" d="m49.5 18.7c2.2 0.2 6 0.2 8.5 0 2.5-0.2 0.7-0.4-4-0.4-4.7 0-6.7 0.2-4.5 0.4zm45.5 1c2.5 0.2 6.8 0.2 9.5 0 2.8-0.2 0.7-0.3-4.5-0.3-5.2 0-7.5 0.1-5 0.3zm95.5 2c2.2 0.2 6 0.2 8.5 0 2.5-0.2 0.7-0.4-4-0.4-4.7 0-6.7 0.2-4.5 0.4zm94 2c2.8 0.2 6.8 0.2 9 0 2.2-0.2-0.1-0.3-5-0.3-4.9 0-6.8 0.1-4 0.3zm142.5 3c2.5 0.2 6.1 0.2 8 0 1.9-0.2-0.1-0.4-4.5-0.4-4.4 0-6 0.2-3.5 0.4zm45.5 1c2.2 0.2 6 0.2 8.5 0 2.5-0.2 0.7-0.4-4-0.4-4.7 0-6.7 0.2-4.5 0.4zm47 1c2.2 0.2 6 0.2 8.5 0 2.5-0.2 0.7-0.4-4-0.4-4.7 0-6.7 0.2-4.5 0.4z"/>
		<path id="Path 2" class="s2" d="m361 16.7c2.5 0.2 6.8 0.2 9.5 0 2.8-0.2 0.7-0.3-4.5-0.3-5.2 0-7.5 0.1-5 0.3z"/>
		<path id="Path 3" class="s3" d="m147.5 15.7c3.3 0.2 8.3 0.2 11 0 2.8-0.2 0.1-0.3-6-0.3-6.1 0-8.3 0.1-5 0.3zm114.5 1c2.5 0.2 6.1 0.2 8 0 1.9-0.2-0.1-0.4-4.5-0.4-4.4 0-6 0.2-3.5 0.4zm178.5 10c1.6 0.2 4.8 0.2 7 0 2.2-0.2 0.9-0.4-3-0.4-3.9 0-5.6 0.2-4 0.4zm47 1c1.6 0.2 4.8 0.2 7 0 2.2-0.2 0.9-0.4-3-0.4-3.9 0-5.6 0.2-4 0.4zm48.5 1c2.5 0.2 6.1 0.2 8 0 1.9-0.2-0.1-0.4-4.5-0.4-4.4 0-6 0.2-3.5 0.4zm145.4 164.3c0 5.8 0.1 8 0.3 5 0.2-3 0.2-7.8 0-10.5-0.2-2.8-0.3-0.3-0.3 5.5z"/>
		<path id="Path 4" class="s4" d="m14.8 25.6c-0.9 1.1-2.1 3.1-2.7 4.6-0.6 1.6-1.1 5.2-1.1 8 0 3.1 0.7 6.8 1.8 8.7 0.9 1.9 2.4 3.8 3.2 4.2 0.8 0.4 19.9 11.2 42.5 24 22.6 12.7 42.5 24 44.3 25 1.7 1.1 3.2 1.7 3.2 1.4 0-0.3-0.9-3.3-2.1-6.8-1.5-4.3-2.3-9.9-2.7-18.2-0.3-7.6 0-14.9 0.8-20 0.7-4.4 2.3-11.2 3.7-15 1.3-3.9 3.5-8.7 4.8-10.8 1.4-2 2.5-3.9 2.5-4.1-0.1-0.2-15-0.6-33.3-1-18.3-0.3-40-0.9-48.2-1.2-13.8-0.6-15.1-0.5-16.7 1.2zm137.6 4.7c-1.4 1.7-3.8 5.4-5.1 8.2-1.4 2.7-3.4 8.4-4.5 12.5-1.3 4.8-2.2 12.4-2.5 21-0.4 10.1-0.1 15.9 1.1 23 0.9 5.2 2.9 13.1 4.5 17.5 1.5 4.4 3.9 9.9 5.4 12.3 2 3 4.4 5 8.7 7.2 3.3 1.7 6.2 3.4 6.5 4 0.3 0.6 4.2 3 8.8 5.5 4.5 2.5 8.9 5 9.7 5.5 0.8 0.5 7.6 4.3 15 8.4 7.4 4.1 13.6 7.4 13.8 7.3 0.1-0.1-0.6-2.5-1.6-5.2-1.1-2.8-2.9-9.1-4-14-1.2-4.9-2.6-13.5-3.2-19-0.6-5.5-1-15.6-1-22.5 0.1-6.9 0.6-16.8 1.1-22 0.6-5.2 1.9-13.5 2.9-18.5 1-5 3.1-12.4 4.5-16.5 1.4-4.1 3.7-9.4 5-11.8l2.5-4.2c-5-0.7-19.6-1.1-35.7-1.4l-29.2-0.6zm110.2 2c-0.8 1.2-2.9 5.2-4.5 8.8-1.7 3.5-4.2 10.7-5.5 16-1.3 5.2-3.1 15-4 21.7-1 7.6-1.6 19.7-1.6 31.8 0 11.7 0.6 24.1 1.5 31.2 0.9 6.5 2.7 16.1 4 21.5 1.4 5.4 3.9 12.8 5.6 16.5 1.7 3.7 4 8.1 5.2 9.7 1.2 1.6 4.6 4 7.4 5.3 2.9 1.2 5.4 2.7 5.5 3.2 0.2 0.5 7.9 5.3 17.3 10.6 9.3 5.3 18.9 10.8 21.2 12.1l4.3 2.4c-4.7-9.3-7.3-16-8.9-20.8-1.7-4.8-3.9-13.2-5-18.7-1.1-5.5-2.5-16.1-3.1-23.5-0.7-7.5-0.9-20.5-0.6-29 0.3-8.6 1-19.4 1.6-24 0.6-4.7 1.9-13 3-18.5 1.1-5.5 3-13.9 4.4-18.5 1.3-4.7 4.1-12.4 6-17 2-4.7 5.5-11.5 7.8-15.1l4.3-6.6c-16.3-1-30.8-1.3-42.7-1.3-21.5 0-21.8 0-23.2 2.2zm133.7 2c-1.2 1.2-3.8 5-5.9 8.3-2 3.3-5 8.9-6.4 12.5-1.5 3.5-3.1 7.4-3.5 8.5-0.4 1.1-0.9 2.4-1 3-0.2 0.5-1.2 4.1-2.3 8-1.1 3.8-2.7 10.1-3.6 14-0.8 3.8-2.2 11.7-3 17.5-0.9 5.7-2 18.3-2.5 28-0.7 11.1-0.7 23.6-0.1 34.5 0.5 9.3 1.6 21.7 2.4 27.5 0.8 5.7 2.2 13.8 3.1 18 0.8 4.1 2.9 12.4 4.7 18.5 1.7 6 5.3 15.2 7.9 20.5 2.6 5.2 5.8 10.4 7.1 11.6 1.3 1.1 12.4 7.8 24.8 14.8 12.4 7.1 25 14.2 28 15.8 3 1.7 6.6 3.8 8 4.8 1.4 0.9 3.3 1.9 4.2 2.3 1 0.4 4.3 2.2 7.3 4.2 3 1.9 5.7 3.5 6 3.5 0.3 0 3.2 1.5 6.5 3.5 3.3 1.9 6.2 3.3 6.5 3.2 0.3-0.1-1-2.3-2.8-4.7-1.8-2.5-4.9-7.2-6.9-10.5-2-3.3-5.1-9.2-6.9-13-1.9-3.9-3.4-7.3-3.4-7.5 0-0.3-0.6-1.4-1.2-2.5-0.6-1.1-2.7-6.5-4.6-12-1.9-5.5-4.7-15.4-6.2-22-1.5-6.6-3.3-17.2-4.1-23.5-0.7-6.4-1.4-18.6-1.4-27.3 0-8.7 0.5-20.1 1-25.5 0.6-5.4 2.2-15.4 3.6-22.2 1.4-6.9 4.1-17.3 6.1-23 1.9-5.8 6.1-16.2 9.4-23 3.3-6.9 8.9-16.8 12.4-22 3.5-5.3 9.2-12.7 12.7-16.5 3.5-3.8 9.9-9.8 14.3-13.3 4.4-3.6 10.6-7.8 13.7-9.4 3.2-1.5 5.7-3 5.5-3.3-0.1-0.2-21.8-0.9-48.2-1.5-26.4-0.5-55-1.2-63.6-1.5-15.2-0.6-15.6-0.5-17.6 1.7z"/>
		<path id="Path 5" class="s1" d="m126 26.3c-1.9 1.2-4.8 4-6.5 6.2-1.7 2.2-4.1 6.6-5.3 9.8-1.2 3.1-2.9 9.9-3.8 14.9-1.2 6.6-1.5 12.1-1 18.8 0.3 5.2 1.4 12.4 2.4 16 1.1 3.6 2.7 8.1 3.7 10 1 1.9 3.2 5.3 5 7.5 2 2.6 6 5.5 11.3 8.2 4.5 2.4 8.2 4.2 8.2 4 0-0.1-1-3.4-2.3-7.2-1.4-3.8-3.2-11.5-4.2-17-1.4-8-1.7-13.3-1.3-26 0.5-13.3 1-17.5 3.2-24.8 1.4-4.8 3.7-10.8 5.1-13.5 1.4-2.6 3.3-5.7 4.3-7l1.7-2.3c-15.8 0.1-17.7 0.5-20.5 2.4zm108.2 0.4c-1.8 0.9-4.7 3.7-6.4 6.2-1.8 2.5-4.3 7.1-5.6 10.1-1.3 3-3.4 10-4.7 15.5-1.3 5.5-2.9 13.8-3.6 18.5-0.6 4.7-1.2 15.9-1.2 25 0 9.1 0.5 20.8 1.3 26 0.7 5.2 1.4 10.2 1.5 11 0.1 0.8 0.5 2.2 0.8 3 0.3 0.8 1.3 4.2 2.2 7.5 0.9 3.3 2.9 8.7 4.5 12 1.5 3.3 5 8.4 7.7 11.4 3.6 4.1 6.7 6.2 12.3 8.8 4.1 1.8 7.6 3.3 7.7 3.3 0.2 0-0.5-1.9-1.5-4.3-1.1-2.3-3.1-8.7-4.5-14.2-1.4-5.5-3.3-14.9-4.2-21-0.9-6.1-1.9-18.2-2.2-27-0.2-8.8 0.1-22.1 0.7-29.5 0.6-7.4 1.8-16.9 2.6-21 0.9-4.1 1.8-8.9 2.1-10.5 0.3-1.7 1.6-6.4 3-10.5 1.3-4.1 4.2-10.8 6.4-14.8l3.9-7.2c-16.7 0-20.4 0.5-22.8 1.7zm130.3 0.2c-11.1 0.5-15.8 1-18 2.2-1.6 0.9-5 3.9-7.5 6.6-2.5 2.7-6.6 8.9-9.1 13.8-2.6 5-5.8 12.4-7.2 16.5-1.4 4.1-3.5 11.3-4.6 16-1.1 4.7-2.5 11.4-3 15-0.6 3.6-1.5 10.8-2.1 16-0.6 5.2-1.1 17.2-1.1 26.5 0 9.3 0.5 21.3 1.1 26.5 0.6 5.2 2.1 13.8 3.2 19 1.1 5.2 3.1 12.7 4.5 16.5 1.4 3.8 4.2 10.1 6.2 14 2 3.8 5.6 9.5 8.1 12.6 2.5 3 6.1 6.9 8 8.6 1.9 1.7 6.6 4.7 10.5 6.8 3.9 2.1 7.4 4.1 8 4.5 0.5 0.4 3.9 2.3 7.5 4.2l6.5 3.6c-5-12.6-7.8-21.5-9.4-27.8-1.7-6.3-3.9-17.1-5-24-1.1-6.9-2.5-17.9-3-24.5-0.6-6.6-1-19-1.1-27.5 0-8.5 0.4-21.1 1-28 0.6-6.9 1.9-17.9 3-24.5 1-6.6 3.2-17.2 4.9-23.5 1.6-6.3 4.4-15.1 6.1-19.5 1.8-4.4 4.3-10.3 5.7-13 1.4-2.8 4.5-7.8 6.9-11.3l4.4-6.2c-7.4 0.3-16.3 0.6-24.5 0.9z"/>
		<path id="Path 6" class="s2" d="m35 24.7c1.9 0.2 5.3 0.2 7.5 0 2.2-0.2 0.6-0.4-3.5-0.4-4.1 0-5.9 0.2-4 0.4zm47 1c1.9 0.2 5.3 0.2 7.5 0 2.2-0.2 0.6-0.4-3.5-0.4-4.1 0-5.9 0.2-4 0.4zm276 1c3.6 0.2 9.9 0.2 14 0 4.1-0.1 1.2-0.3-6.5-0.3-7.7 0-11.1 0.1-7.5 0.3zm-181.5 1c1.7 0.2 4.8 0.2 7 0 2.2-0.2 0.8-0.4-3-0.4-3.8 0-5.7 0.2-4 0.4zm87.1 2.1c-0.2 0.4 2.4 0.6 5.7 0.4 3.4-0.1 7.6-0.4 9.2-0.6 1.6-0.1-0.9-0.4-5.7-0.4-4.8-0.1-8.9 0.1-9.2 0.6zm53.9 0.9c1.6 0.2 4.8 0.2 7 0 2.2-0.2 0.9-0.4-3-0.4-3.9 0-5.6 0.2-4 0.4zm141.5 3c1.9 0.2 5.3 0.2 7.5 0 2.2-0.2 0.6-0.4-3.5-0.4-4.1 0-5.9 0.2-4 0.4zm94 5.2c-2.5 0.5-7.2 1.6-10.5 2.6-3.3 0.9-8.7 3.1-12 4.7-3.3 1.7-8.7 4.9-12 7.1-3.3 2.2-9.9 7.9-14.6 12.6-5.3 5.4-11.3 12.9-16 20.1-4.1 6.3-9.5 15.8-11.8 21-2.4 5.2-5.9 14.2-7.8 20-1.9 5.8-4.5 15.9-5.8 22.5-1.3 6.6-2.9 17.6-3.6 24.5-0.7 7.6-0.9 18.2-0.5 27 0.3 8 1.3 19.2 2.1 25 0.9 5.8 2.6 14.8 4 20 1.3 5.2 3.8 13.6 5.5 18.5 1.8 4.9 5.1 13.1 7.5 18 2.3 4.9 7.4 13.7 11.3 19.5 3.8 5.8 10.5 14 14.8 18.4 4.4 4.3 10.6 9.8 13.9 12.1 3.3 2.4 9.4 6 13.5 8 4.1 2.1 10.9 4.6 15 5.6 5 1.3 11.1 1.9 18 1.9q10.5 0 18-1.9c4.1-1 10.9-3.5 15-5.6 4.1-2 10.4-5.8 14-8.3 3.5-2.6 9.3-7.6 12.9-11.2 3.5-3.6 8.2-9 10.6-12 2.3-3 6.6-9.6 9.6-14.5 2.9-4.9 7-12.8 9-17.5 2-4.7 5.3-13.7 7.3-20 1.9-6.3 4.4-16 5.5-21.5 1.1-5.5 2.4-14.9 3-21 0.6-6.1 1.1-15.7 1.1-21.5 0-5.8-0.5-15.2-1-21-0.6-5.8-2.2-16.1-3.6-23-1.4-6.9-4.1-17.2-6-23-1.9-5.8-5.8-15.2-8.5-21-2.8-5.8-7.9-14.8-11.4-20-3.5-5.2-8.9-12.4-12.2-15.9-3.2-3.6-9.2-9.1-13.3-12.4-4.1-3.3-11.5-7.9-16.5-10.3-5-2.4-11.7-5.1-15-5.9-3.3-0.9-10.3-1.8-15.5-2-5.2-0.2-11.5 0-14 0.4zm-314.7 62.6c0 3.8 0.2 5.2 0.4 3 0.2-2.2 0.2-5.3 0-7-0.2-1.7-0.4 0.2-0.4 4zm8.1 9c0 7.7 0.2 10.6 0.3 6.5 0.2-4.1 0.2-10.4 0-14-0.2-3.6-0.3-0.2-0.3 7.5zm-8.1 9c0 3.8 0.2 5.2 0.4 3 0.2-2.2 0.2-5.3 0-7-0.2-1.7-0.4 0.2-0.4 4zm63 13c0 3.8 0.2 5.2 0.4 3 0.2-2.2 0.2-5.3 0-7-0.2-1.7-0.4 0.2-0.4 4zm10.1 7.5c0 6.9 0.1 9.6 0.3 6 0.2-3.6 0.2-9.2 0-12.5-0.2-3.3-0.3-0.4-0.3 6.5z"/>
		<path id="Path 7" class="s1" d="m665.4 193c0 5.2 0.1 7.3 0.3 4.5 0.2-2.8 0.2-7 0-9.5-0.2-2.5-0.3-0.2-0.3 5z"/>
		<path id="Path 8" class="s3" d="m556.5 49c-3.3 0.4-8.7 1.5-12 2.4-3.3 1-9.4 3.5-13.5 5.6-4.1 2-10.9 6.4-15 9.7-4.1 3.2-10.3 9.1-13.8 13.1-3.4 4-6.6 8-7.2 9-0.5 0.9-0.6 2.1-0.2 2.5 0.4 0.5 0 0.7-0.8 0.5-0.9-0.2-1.5 0.4-1.5 1.3 0 0.9-0.2 1.5-0.5 1.3-0.3-0.1-1.9 2-3.7 4.9-1.8 2.9-5 9-7.2 13.7-2.2 4.7-5.5 13.2-7.5 19-1.9 5.8-4.3 15.2-5.5 21-1.1 5.8-2.5 15.7-3.1 22-0.6 6.3-1 14.9-1 19 0.1 4.1 0.6 12.4 1.1 18.5 0.6 6.1 1.9 15.5 3 21 1.1 5.5 3.6 14.9 5.6 21 1.9 6.1 5.7 15.6 8.4 21.3 2.7 5.6 5.1 10.2 5.4 10.2 0.3 0 0.2-0.8-0.2-1.7-0.3-1-0.3-1.6 0.1-1.3 0.3 0.3 0.8 1.6 0.9 3 0.2 1.4 2.5 5.6 5.2 9.5 2.7 3.9 8.5 10.7 12.9 15.3 4.5 4.6 11.2 10.5 15.1 13.2 3.9 2.7 9.7 6 13 7.5 3.3 1.5 9.4 3.6 13.5 4.6 4.6 1.2 10.9 1.9 16.5 1.9 5.8 0 11.9-0.7 17-2 4.4-1.1 10.7-3.3 14-4.8 3.3-1.6 8.9-4.8 12.5-7.2 3.6-2.5 9.2-7 12.5-10.1 3.3-3.1 8.6-9.2 11.8-13.5 3.3-4.4 7-9.7 8.3-11.9 1.3-2.2 3.9-7.1 5.8-11 1.9-3.9 4.3-9 5.4-11.5 1.1-2.5 2.9-7.4 4-11 1.2-3.6 3.1-10.6 4.3-15.5 1.1-4.9 2.7-13.7 3.5-19.5 0.7-5.8 1.4-17.6 1.4-26.2 0-8.7-0.7-21.1-1.5-27.5-0.9-6.5-2.5-15.4-3.6-19.8-1.1-4.4-3.2-11.6-4.6-16-1.4-4.4-4.8-12.7-7.5-18.5-2.7-5.8-7.5-14.3-10.6-19-3.1-4.7-8.8-11.8-12.7-15.9-3.8-4.1-9.9-9.6-13.5-12.3-3.6-2.7-10.1-6.7-14.5-8.8-4.4-2.2-10.9-4.6-14.5-5.4-3.6-0.8-9.4-1.6-13-1.9-3.6-0.3-9.2-0.1-12.5 0.3z"/>
		<path id="Path 9" class="s0" d="m594.3 120.2c-0.6 0.7-2 3.1-3 5.3-1.1 2.2-3.2 8.5-4.6 14-1.5 5.5-4.2 19-6.2 30-1.9 11-5.5 33.5-8 50-2.5 16.5-5 32.7-5.7 36-0.6 3.3-1.4 6.7-1.8 7.5-0.5 1-1.1-0.1-1.9-3.3-0.6-2.6-1-5-0.9-5.5 0-0.4-0.1-1.4-0.5-2.2-0.3-0.8-2.2-11.6-4.2-24-2-12.4-4.8-28.1-6.1-35-1.4-6.9-3.8-17.1-5.5-22.8-1.6-5.6-3.9-12.6-5.2-15.5-1.3-2.8-3.7-6.3-5.3-7.7-1.8-1.6-5.2-3-8.9-3.7-3.3-0.7-8.7-1.4-12-1.8l-6-0.5c8.5 2.4 13.2 4.3 15.9 5.8 2.7 1.5 5.8 4 6.8 5.7 1 1.7 2.3 5.5 2.9 8.5 0.6 3 1.3 6.8 1.5 8.5 0.2 1.7 0.8 4.9 1.4 7.2 0.5 2.4 1.2 6.2 1.5 8.5 0.3 2.4 1.9 11.7 3.5 20.8 1.7 9.1 4.4 23 6 31 1.7 8 4.1 18.6 5.6 23.5 1.4 4.9 2.6 9.8 2.7 10.7 0.1 1 0.4 1.8 0.7 1.8 0.3 0 1.3 1.5 2.3 3.5 0.9 1.9 2.5 3.5 3.5 3.5 0.9 0.1 2.2-0.5 2.8-1.2 0.6-0.7 2-3.8 3.2-6.8 1.1-3 3.2-11 4.6-17.8 1.4-6.7 5.3-28.1 8.6-47.5 3.4-19.3 7.4-41 8.9-48.2 1.6-7.2 3.8-15.1 5-17.8 1.2-2.8 2.9-4.9 4.1-5.2 1.1-0.3 3.9 0.3 6.3 1.3 2.3 1 7.1 4.5 10.7 7.8 3.6 3.4 9 7.9 12 10 3 2.2 6.4 4.4 7.5 4.8 1.8 0.7 1.9 0.6 0.5-1.1-0.8-1-4.6-5.6-8.5-10.3-3.8-4.6-9.7-11.3-13-14.9-3.3-3.5-8-7.8-10.5-9.6-2.5-1.8-5.6-3.6-7.1-4-1.6-0.4-2.9-0.1-3.6 0.7z"/>
	</g>
</svg>